<svg width="564" height="168" viewBox="0 0 564 168" fill="none" xmlns="http://www.w3.org/2000/svg">
<rect width="564" height="168" rx="14" fill="#343A40"/>
<path d="M76.6835 40.0263C73.969 39.765 71.4427 41.4735 70.7489 44.1721L68.2612 53.8438C99.7766 54.7875 121.096 76.2933 122.43 108.33L131.994 105.618C134.635 104.869 136.276 102.235 135.962 99.4475C132.454 68.3747 107.24 42.9775 76.6835 40.0263ZM66.862 59.277L50.0897 124.504C49.9678 124.978 49.9702 125.477 50.0966 125.949C50.223 126.422 50.4689 126.852 50.8097 127.196C51.1504 127.541 51.5738 127.787 52.0373 127.91C52.5007 128.034 52.9877 128.03 53.4492 127.899L117.112 109.834C116.394 79.7739 96.4373 59.6208 66.862 59.2839V59.277ZM71.4981 111.503C70.435 111.503 69.3957 111.181 68.5118 110.576C67.6279 109.972 66.9389 109.113 66.5321 108.108C66.1252 107.103 66.0188 105.997 66.2262 104.93C66.4336 103.863 66.9455 102.883 67.6973 102.114C68.449 101.345 69.4068 100.821 70.4494 100.609C71.4921 100.396 72.5729 100.505 73.5551 100.922C74.5373 101.338 75.3768 102.043 75.9674 102.947C76.558 103.852 76.8733 104.915 76.8733 106.003C76.8733 107.462 76.307 108.861 75.2989 109.892C74.2909 110.924 72.9237 111.503 71.4981 111.503ZM79.5609 85.3772C78.4978 85.3772 77.4585 85.0547 76.5746 84.4503C75.6906 83.8459 75.0017 82.9869 74.5948 81.9819C74.188 80.9768 74.0816 79.8709 74.289 78.804C74.4964 77.7371 75.0083 76.757 75.76 75.9878C76.5118 75.2186 77.4695 74.6947 78.5122 74.4825C79.5549 74.2703 80.6357 74.3792 81.6179 74.7955C82.6 75.2118 83.4395 75.9168 84.0302 76.8213C84.6208 77.7258 84.936 78.7892 84.936 79.877C84.936 81.3358 84.3697 82.7348 83.3617 83.7663C82.3536 84.7978 80.9864 85.3772 79.5609 85.3772ZM97.0302 103.253C95.9671 103.253 94.9279 102.93 94.0439 102.326C93.16 101.722 92.471 100.863 92.0642 99.8576C91.6573 98.8525 91.5509 97.7466 91.7583 96.6797C91.9657 95.6127 92.4776 94.6327 93.2294 93.8635C93.9811 93.0943 94.9389 92.5704 95.9816 92.3582C97.0242 92.146 98.105 92.2549 99.0872 92.6712C100.069 93.0875 100.909 93.7925 101.5 94.697C102.09 95.6015 102.405 96.6649 102.405 97.7527C102.405 99.2115 101.839 100.61 100.831 101.642C99.823 102.673 98.4558 103.253 97.0302 103.253Z" fill="#F15E29"/>
<path d="M171.57 107V55.8125H187.32C191.82 55.8125 195.84 56.832 199.379 58.8711C202.941 60.8867 205.719 63.7695 207.711 67.5195C209.703 71.2461 210.699 75.4883 210.699 80.2461V82.6016C210.699 87.3594 209.715 91.5898 207.746 95.293C205.801 98.9961 203.047 101.867 199.484 103.906C195.922 105.945 191.902 106.977 187.426 107H171.57ZM182.117 64.3555V98.5273H187.215C191.34 98.5273 194.492 97.1797 196.672 94.4844C198.852 91.7891 199.965 87.9336 200.012 82.918V80.2109C200.012 75.0078 198.934 71.0703 196.777 68.3984C194.621 65.7031 191.469 64.3555 187.32 64.3555H182.117ZM228.453 107H218.258V68.9609H228.453V107ZM217.66 59.1172C217.66 57.5938 218.164 56.3398 219.172 55.3555C220.203 54.3711 221.598 53.8789 223.355 53.8789C225.09 53.8789 226.473 54.3711 227.504 55.3555C228.535 56.3398 229.051 57.5938 229.051 59.1172C229.051 60.6641 228.523 61.9297 227.469 62.9141C226.438 63.8984 225.066 64.3906 223.355 64.3906C221.645 64.3906 220.262 63.8984 219.207 62.9141C218.176 61.9297 217.66 60.6641 217.66 59.1172ZM257.457 96.4883C257.457 95.2461 256.836 94.2734 255.594 93.5703C254.375 92.8438 252.406 92.1992 249.688 91.6367C240.641 89.7383 236.117 85.8945 236.117 80.1055C236.117 76.7305 237.512 73.918 240.301 71.668C243.113 69.3945 246.781 68.2578 251.305 68.2578C256.133 68.2578 259.988 69.3945 262.871 71.668C265.777 73.9414 267.23 76.8945 267.23 80.5273H257.07C257.07 79.0742 256.602 77.8789 255.664 76.9414C254.727 75.9805 253.262 75.5 251.27 75.5C249.559 75.5 248.234 75.8867 247.297 76.6602C246.359 77.4336 245.891 78.418 245.891 79.6133C245.891 80.7383 246.418 81.6523 247.473 82.3555C248.551 83.0352 250.355 83.6328 252.887 84.1484C255.418 84.6406 257.551 85.2031 259.285 85.8359C264.652 87.8047 267.336 91.2148 267.336 96.0664C267.336 99.5352 265.848 102.348 262.871 104.504C259.895 106.637 256.051 107.703 251.34 107.703C248.152 107.703 245.316 107.141 242.832 106.016C240.371 104.867 238.438 103.309 237.031 101.34C235.625 99.3477 234.922 97.2031 234.922 94.9062H244.555C244.648 96.7109 245.316 98.0938 246.559 99.0547C247.801 100.016 249.465 100.496 251.551 100.496C253.496 100.496 254.961 100.133 255.945 99.4062C256.953 98.6562 257.457 97.6836 257.457 96.4883ZM287.727 91.7422L284.07 95.3984V107H273.91V53H284.07V82.918L286.039 80.3867L295.777 68.9609H307.977L294.23 84.8164L309.172 107H297.5L287.727 91.7422ZM332.129 89.1758H312.336V80.9844H332.129V89.1758ZM351.5 88.9648V107H340.953V55.8125H360.922C364.766 55.8125 368.141 56.5156 371.047 57.9219C373.977 59.3281 376.227 61.332 377.797 63.9336C379.367 66.5117 380.152 69.4531 380.152 72.7578C380.152 77.7734 378.43 81.7344 374.984 84.6406C371.562 87.5234 366.816 88.9648 360.746 88.9648H351.5ZM351.5 80.4219H360.922C363.711 80.4219 365.832 79.7656 367.285 78.4531C368.762 77.1406 369.5 75.2656 369.5 72.8281C369.5 70.3203 368.762 68.293 367.285 66.7461C365.809 65.1992 363.77 64.4023 361.168 64.3555H351.5V80.4219ZM397.484 107H387.289V68.9609H397.484V107ZM386.691 59.1172C386.691 57.5938 387.195 56.3398 388.203 55.3555C389.234 54.3711 390.629 53.8789 392.387 53.8789C394.121 53.8789 395.504 54.3711 396.535 55.3555C397.566 56.3398 398.082 57.5938 398.082 59.1172C398.082 60.6641 397.555 61.9297 396.5 62.9141C395.469 63.8984 394.098 64.3906 392.387 64.3906C390.676 64.3906 389.293 63.8984 388.238 62.9141C387.207 61.9297 386.691 60.6641 386.691 59.1172ZM417.559 98.8086H436.156V107H404.586V100.812L422.48 77.1875H405.113V68.9609H435.594V74.9727L417.559 98.8086ZM454.191 98.8086H472.789V107H441.219V100.812L459.113 77.1875H441.746V68.9609H472.227V74.9727L454.191 98.8086ZM501.195 107C500.727 106.086 500.387 104.949 500.176 103.59C497.715 106.332 494.516 107.703 490.578 107.703C486.852 107.703 483.758 106.625 481.297 104.469C478.859 102.312 477.641 99.5938 477.641 96.3125C477.641 92.2812 479.129 89.1875 482.105 87.0312C485.105 84.875 489.43 83.7852 495.078 83.7617H499.754V81.582C499.754 79.8242 499.297 78.418 498.383 77.3633C497.492 76.3086 496.074 75.7812 494.129 75.7812C492.418 75.7812 491.07 76.1914 490.086 77.0117C489.125 77.832 488.645 78.957 488.645 80.3867H478.484C478.484 78.1836 479.164 76.1445 480.523 74.2695C481.883 72.3945 483.805 70.9297 486.289 69.875C488.773 68.7969 491.562 68.2578 494.656 68.2578C499.344 68.2578 503.059 69.4414 505.801 71.8086C508.566 74.1523 509.949 77.457 509.949 81.7227V98.2109C509.973 101.82 510.477 104.551 511.461 106.402V107H501.195ZM492.793 99.9336C494.293 99.9336 495.676 99.6055 496.941 98.9492C498.207 98.2695 499.145 97.3672 499.754 96.2422V89.7031H495.957C490.871 89.7031 488.164 91.4609 487.836 94.9766L487.801 95.5742C487.801 96.8398 488.246 97.8828 489.137 98.7031C490.027 99.5234 491.246 99.9336 492.793 99.9336Z" fill="#F8F9FA"/>
</svg>
